<svg width="721" height="63" viewBox="0 0 721 63" fill="none" xmlns="http://www.w3.org/2000/svg">
<g opacity="0.34">
<path fill-rule="evenodd" clip-rule="evenodd" d="M115.083 51.0813C115.517 50.2126 115.517 50.2126 116.124 50.8207C116.731 51.4287 118.033 52.6449 119.594 54.0347C121.156 55.4246 122.891 57.075 125.32 58.6386C127.749 60.2022 130.785 61.8527 133.995 62.2002C137.118 62.5476 140.328 61.679 149.437 54.9034C158.546 48.1278 173.555 35.5322 182.577 28.2354C191.599 20.9386 194.549 19.0275 198.106 18.9407C201.662 18.8538 205.74 20.5042 208.863 23.1102C211.899 25.8031 213.895 29.4515 214.328 33.1868C214.762 36.922 213.548 40.7441 211.986 43.6976C210.425 46.6511 208.342 48.8227 206 50.0389C203.658 51.255 200.882 51.4287 199.58 51.6025C198.192 51.6893 198.192 51.6893 198.626 50.9944C198.973 50.2995 199.754 48.9096 199.58 47.1723C199.407 45.4349 198.366 43.3501 196.457 41.5259C194.549 39.6149 191.859 37.9644 189.777 37.9644C187.609 38.0513 186.047 39.8755 184.659 42.3077C183.271 44.8269 182.056 47.9541 179.801 50.7338C177.545 53.5135 174.335 55.8589 172.687 57.0751C171.039 58.2912 171.039 58.2912 172.947 58.4649C174.856 58.6386 178.586 59.073 181.536 58.4649C184.485 57.77 186.654 56.1195 188.303 55.9458C189.951 55.7721 191.079 57.2488 193.508 58.4649C195.937 59.7679 199.58 60.8972 203.137 60.8972C206.694 60.8972 210.078 59.8548 213.374 57.6831C216.671 55.5115 219.794 52.2974 222.049 48.2147C224.305 44.1319 225.693 39.0937 225.78 34.8372C225.867 30.5808 224.739 27.0192 223.177 23.8052C221.616 20.5911 219.62 17.6377 216.757 15.0317C213.895 12.4257 210.164 10.254 206.521 8.951C202.877 7.648 199.494 7.1268 195.937 7.648C192.38 8.1692 188.736 9.81967 179.714 16.5953C170.778 23.3708 156.551 35.3584 148.049 41.9603C139.634 48.5621 136.945 49.8651 134.256 49.7783C131.566 49.6914 128.79 48.3015 126.621 46.8248C124.452 45.3481 122.891 43.6976 121.676 42.134C120.462 40.5704 119.594 38.9199 119.247 36.2271C118.814 33.4474 118.9 29.5384 119.334 26.7586C119.768 23.9789 120.462 22.2416 121.416 20.5042C122.37 18.7669 123.585 17.0296 125.233 15.9003C126.882 14.6842 129.05 14.0761 131.132 14.163C133.215 14.2499 135.297 15.0317 135.73 15.9872C136.164 16.9427 134.863 17.9851 135.036 19.983C135.123 21.981 136.685 24.9344 138.159 26.8455C139.634 28.6697 141.109 29.4515 142.671 29.4515C144.232 29.4515 145.794 28.6697 147.355 26.7586C148.917 24.8476 150.392 21.8072 152.474 18.6801C154.556 15.5529 157.158 12.4257 158.46 10.8621C159.761 9.29847 159.761 9.29847 157.158 9.55907C154.556 9.81967 149.437 10.3409 145.186 9.7328C140.849 9.12473 137.379 7.3874 134.776 6.25814C132.173 5.21574 130.612 4.78141 128.877 4.78141C127.142 4.78141 125.233 5.04201 123.325 6.43187C121.416 7.73487 119.508 10.1671 118.293 11.6439C117.079 13.1206 116.645 13.7287 116.211 12.6863C115.777 11.6439 115.517 8.86414 115.17 6.86621C114.823 4.86828 114.563 3.65214 114.216 2.78348C113.869 1.91481 113.435 1.13302 113.001 0.611816C112.567 1.13302 112.22 1.91481 111.873 2.87035C111.526 3.82588 111.266 5.12888 111.006 7.1268C110.659 9.12473 110.312 11.8176 109.965 12.86C109.531 13.9024 109.097 13.2943 107.883 11.8176C106.668 10.3409 104.76 7.9086 102.851 6.60561C100.942 5.30261 99.0339 4.95514 97.2989 4.95514C95.5638 4.95514 93.9155 5.38947 91.3997 6.43187C88.7971 7.47427 85.327 9.29847 80.9893 9.90653C76.6517 10.5146 71.5333 9.9934 69.0175 9.7328C66.4149 9.4722 66.4149 9.4722 67.7162 11.0358C69.0175 12.5994 71.62 15.7266 73.7021 18.8538C75.7842 21.981 77.259 25.0213 78.8205 26.9324C80.3821 28.8434 81.9436 29.6252 83.5052 29.6252C85.0667 29.6252 86.5415 28.8434 88.0163 27.0192C89.4911 25.195 91.0527 22.1547 91.1394 20.1568C91.2262 18.1589 90.0116 17.0296 90.4454 16.1609C90.8792 15.2054 92.9612 14.4236 95.0433 14.3367C97.1254 14.2499 99.2942 14.8579 100.942 16.0741C102.591 17.2902 103.805 19.0275 104.76 20.678C105.714 22.4153 106.408 24.0658 106.842 26.9324C107.275 29.7121 107.275 33.6211 106.928 36.4008C106.495 39.1806 105.714 40.7441 104.499 42.3077C103.285 43.8713 101.723 45.5218 99.5544 46.9985C97.3856 48.4753 94.6095 49.8651 91.9202 49.952C89.2309 50.0389 86.5415 48.7359 78.1265 42.134C69.7115 35.5322 55.3973 23.5446 46.4617 16.769C37.5262 9.9934 33.7958 8.4298 30.2389 7.82174C26.6821 7.30054 23.212 7.73487 19.6551 9.12473C16.0115 10.4277 12.2811 12.6863 9.41827 15.2054C6.55543 17.8114 4.56011 20.7648 2.99856 23.9789C1.43701 27.193 0.309227 30.7545 0.39598 35.011C0.482733 39.2674 1.87078 44.2188 4.12635 48.3884C6.38192 52.4711 9.59178 55.6852 12.8016 57.8568C16.0982 60.0285 19.4816 61.1578 23.0385 61.0709C26.5953 61.0709 30.2389 59.8548 32.668 58.6386C35.0971 57.3356 36.2249 55.9458 37.8732 56.1195C39.5215 56.2933 41.6903 58.0306 44.6399 58.6386C47.5895 59.3336 51.3199 58.8992 53.2284 58.6386C55.137 58.4649 55.137 58.4649 53.4887 57.2488C51.8404 56.0327 48.6305 53.6873 46.375 50.9075C44.1194 48.1278 42.9049 44.9137 41.5168 42.4815C40.1288 39.9623 38.5672 38.1381 36.3984 38.1381C34.2296 38.0513 31.5402 39.7886 29.7184 41.6997C27.8099 43.6107 26.7688 45.6955 26.5953 47.346C26.4218 49.0833 27.2026 50.4732 27.5496 51.1681C27.8966 51.8631 27.8966 51.8631 26.5953 51.7762C25.2073 51.6893 22.5179 51.4287 20.1756 50.2126C17.8333 48.9965 15.7512 46.8248 14.1897 43.8713C12.6281 40.9179 11.4136 37.0957 11.8474 33.3605C12.2811 29.6252 14.2764 25.9768 17.3128 23.284C20.3491 20.5911 24.5133 18.9407 28.0701 19.1144C31.627 19.2013 34.5766 21.1123 43.5989 28.4091C52.6212 35.7059 67.6294 48.3015 76.7385 55.0771C85.8475 61.8527 89.0573 62.7214 92.1805 62.3739C95.3036 62.0264 98.4266 60.4628 100.856 58.8124C103.285 57.2488 105.02 55.5983 106.581 54.2085C108.143 52.8186 109.444 51.6025 110.052 50.9944C110.746 50.3863 110.746 50.3863 111.093 51.255C113.955 58.1175 112.305 58.134 115.083 51.0813Z" stroke="#1D1D1D" style="stroke:#1D1D1D;stroke:color(display-p3 0.1129 0.1129 0.1129);stroke-opacity:1;" stroke-width="0.782615"/>
<path fill-rule="evenodd" clip-rule="evenodd" d="M340.476 51.0813C340.91 50.2126 340.91 50.2126 341.517 50.8207C342.125 51.4287 343.426 52.6449 344.988 54.0347C346.549 55.4246 348.284 57.075 350.713 58.6386C353.142 60.2022 356.179 61.8527 359.388 62.2002C362.512 62.5476 365.721 61.679 374.83 54.9034C383.94 48.1278 398.948 35.5322 407.97 28.2354C416.992 20.9386 419.942 19.0275 423.499 18.9407C427.056 18.8538 431.133 20.5042 434.256 23.1102C437.292 25.8031 439.288 29.4515 439.722 33.1868C440.155 36.922 438.941 40.7441 437.379 43.6976C435.818 46.6511 433.736 48.8227 431.393 50.0389C429.051 51.255 426.275 51.4287 424.974 51.6025C423.586 51.6893 423.586 51.6893 424.019 50.9944C424.366 50.2995 425.147 48.9096 424.974 47.1723C424.8 45.4349 423.759 43.3501 421.85 41.5259C419.942 39.6149 417.253 37.9644 415.171 37.9644C413.002 38.0513 411.44 39.8755 410.052 42.3077C408.664 44.8269 407.45 47.9541 405.194 50.7338C402.938 53.5135 399.729 55.8589 398.08 57.0751C396.432 58.2912 396.432 58.2912 398.34 58.4649C400.249 58.6386 403.979 59.073 406.929 58.4649C409.879 57.77 412.047 56.1195 413.696 55.9458C415.344 55.7721 416.472 57.2488 418.901 58.4649C421.33 59.7679 424.974 60.8972 428.53 60.8972C432.087 60.8972 435.471 59.8548 438.767 57.6831C442.064 55.5115 445.187 52.2974 447.443 48.2147C449.698 44.1319 451.086 39.0937 451.173 34.8372C451.26 30.5808 450.132 27.0192 448.57 23.8052C447.009 20.5911 445.013 17.6377 442.151 15.0317C439.288 12.4257 435.557 10.254 431.914 8.951C428.27 7.648 424.887 7.1268 421.33 7.648C417.773 8.1692 414.129 9.81967 405.107 16.5953C396.172 23.3708 381.944 35.3584 373.442 41.9603C365.027 48.5621 362.338 49.8651 359.649 49.7783C356.959 49.6914 354.183 48.3015 352.014 46.8248C349.846 45.3481 348.284 43.6976 347.07 42.134C345.855 40.5704 344.987 38.9199 344.64 36.2271C344.207 33.4474 344.293 29.5384 344.727 26.7586C345.161 23.9789 345.855 22.2416 346.809 20.5042C347.764 18.7669 348.978 17.0296 350.626 15.9003C352.275 14.6842 354.444 14.0761 356.526 14.163C358.608 14.2499 360.69 15.0317 361.124 15.9872C361.557 16.9427 360.256 17.9851 360.429 19.983C360.516 21.981 362.078 24.9344 363.553 26.8455C365.027 28.6697 366.502 29.4515 368.064 29.4515C369.625 29.4515 371.187 28.6697 372.748 26.7586C374.31 24.8476 375.785 21.8072 377.867 18.6801C379.949 15.5529 382.551 12.4257 383.853 10.8621C385.154 9.29847 385.154 9.29847 382.551 9.55907C379.949 9.81967 374.83 10.3409 370.58 9.7328C366.242 9.12473 362.772 7.3874 360.169 6.25814C357.567 5.21574 356.005 4.78141 354.27 4.78141C352.535 4.78141 350.626 5.04201 348.718 6.43187C346.809 7.73487 344.901 10.1671 343.686 11.6439C342.472 13.1206 342.038 13.7287 341.604 12.6863C341.17 11.6439 340.91 8.86414 340.563 6.86621C340.216 4.86828 339.956 3.65214 339.609 2.78348C339.262 1.91481 338.828 1.13302 338.394 0.611816C337.961 1.13302 337.614 1.91481 337.266 2.87035C336.919 3.82588 336.659 5.12888 336.399 7.1268C336.052 9.12473 335.705 11.8176 335.358 12.86C334.924 13.9024 334.49 13.2943 333.276 11.8176C332.061 10.3409 330.153 7.9086 328.244 6.60561C326.336 5.30261 324.427 4.95514 322.692 4.95514C320.957 4.95514 319.309 5.38947 316.793 6.43187C314.19 7.47427 310.72 9.29847 306.382 9.90653C302.045 10.5146 296.926 9.9934 294.411 9.7328C291.808 9.4722 291.808 9.4722 293.109 11.0358C294.411 12.5994 297.013 15.7266 299.095 18.8538C301.177 21.981 302.652 25.0213 304.214 26.9324C305.775 28.8434 307.337 29.6252 308.898 29.6252C310.46 29.6252 311.935 28.8434 313.409 27.0192C314.884 25.195 316.446 22.1547 316.533 20.1568C316.619 18.1589 315.405 17.0296 315.839 16.1609C316.272 15.2054 318.354 14.4236 320.436 14.3367C322.519 14.2499 324.687 14.8579 326.336 16.0741C327.984 17.2902 329.198 19.0275 330.153 20.678C331.107 22.4153 331.801 24.0658 332.235 26.9324C332.669 29.7121 332.669 33.6211 332.322 36.4008C331.888 39.1806 331.107 40.7441 329.893 42.3077C328.678 43.8713 327.116 45.5218 324.948 46.9985C322.779 48.4753 320.003 49.8651 317.313 49.952C314.624 50.0389 311.935 48.7359 303.52 42.134C295.105 35.5322 280.79 23.5446 271.855 16.769C262.919 9.9934 259.189 8.4298 255.632 7.82174C252.075 7.30054 248.605 7.73487 245.048 9.12473C241.405 10.4277 237.674 12.6863 234.811 15.2054C231.949 17.8114 229.953 20.7648 228.392 23.9789C226.83 27.193 225.702 30.7545 225.789 35.011C225.876 39.2674 227.264 44.2188 229.52 48.3884C231.775 52.4711 234.985 55.6852 238.195 57.8568C241.491 60.0285 244.875 61.1578 248.432 61.0709C251.988 61.0709 255.632 59.8548 258.061 58.6386C260.49 57.3356 261.618 55.9458 263.266 56.1195C264.915 56.2933 267.083 58.0306 270.033 58.6386C272.983 59.3336 276.713 58.8992 278.622 58.6386C280.53 58.4649 280.53 58.4649 278.882 57.2488C277.234 56.0327 274.024 53.6873 271.768 50.9075C269.513 48.1278 268.298 44.9137 266.91 42.4815C265.522 39.9623 263.96 38.1381 261.792 38.1381C259.623 38.0513 256.933 39.7886 255.112 41.6997C253.203 43.6107 252.162 45.6955 251.988 47.346C251.815 49.0833 252.596 50.4732 252.943 51.1681C253.29 51.8631 253.29 51.8631 251.988 51.7762C250.6 51.6893 247.911 51.4287 245.569 50.2126C243.226 48.9965 241.144 46.8248 239.583 43.8713C238.021 40.9179 236.807 37.0957 237.241 33.3605C237.674 29.6252 239.67 25.9768 242.706 23.284C245.742 20.5911 249.906 18.9407 253.463 19.1144C257.02 19.2013 259.97 21.1123 268.992 28.4091C278.014 35.7059 293.023 48.3015 302.132 55.0771C311.241 61.8527 314.451 62.7214 317.574 62.3739C320.697 62.0264 323.82 60.4628 326.249 58.8124C328.678 57.2488 330.413 55.5983 331.975 54.2085C333.536 52.8186 334.837 51.6025 335.445 50.9944C336.139 50.3863 336.139 50.3863 336.486 51.255C339.349 58.1175 337.698 58.134 340.476 51.0813Z" stroke="#1D1D1D" style="stroke:#1D1D1D;stroke:color(display-p3 0.1129 0.1129 0.1129);stroke-opacity:1;" stroke-width="0.782615"/>
<path fill-rule="evenodd" clip-rule="evenodd" d="M565.87 51.0813C566.303 50.2126 566.303 50.2126 566.911 50.8207C567.518 51.4287 568.819 52.6449 570.381 54.0347C571.942 55.4246 573.677 57.075 576.106 58.6386C578.535 60.2022 581.572 61.8527 584.782 62.2002C587.905 62.5476 591.115 61.679 600.224 54.9034C609.333 48.1278 624.341 35.5322 633.363 28.2354C642.385 20.9386 645.335 19.0275 648.892 18.9407C652.449 18.8538 656.526 20.5042 659.649 23.1102C662.686 25.8031 664.681 29.4515 665.115 33.1868C665.548 36.922 664.334 40.7441 662.772 43.6976C661.211 46.6511 659.129 48.8227 656.786 50.0389C654.444 51.255 651.668 51.4287 650.367 51.6025C648.979 51.6893 648.979 51.6893 649.412 50.9944C649.759 50.2995 650.54 48.9096 650.367 47.1723C650.193 45.4349 649.152 43.3501 647.244 41.5259C645.335 39.6149 642.646 37.9644 640.564 37.9644C638.395 38.0513 636.833 39.8755 635.445 42.3077C634.057 44.8269 632.843 47.9541 630.587 50.7338C628.332 53.5135 625.122 55.8589 623.473 57.0751C621.825 58.2912 621.825 58.2912 623.734 58.4649C625.642 58.6386 629.373 59.073 632.322 58.4649C635.272 57.77 637.441 56.1195 639.089 55.9458C640.737 55.7721 641.865 57.2488 644.294 58.4649C646.723 59.7679 650.367 60.8972 653.924 60.8972C657.48 60.8972 660.864 59.8548 664.16 57.6831C667.457 55.5115 670.58 52.2974 672.836 48.2147C675.091 44.1319 676.479 39.0937 676.566 34.8372C676.653 30.5808 675.525 27.0192 673.964 23.8052C672.402 20.5911 670.407 17.6377 667.544 15.0317C664.681 12.4257 660.951 10.254 657.307 8.951C653.663 7.648 650.28 7.1268 646.723 7.648C643.166 8.1692 639.523 9.81967 630.5 16.5953C621.565 23.3708 607.337 35.3584 598.836 41.9603C590.421 48.5621 587.731 49.8651 585.042 49.7783C582.353 49.6914 579.576 48.3015 577.408 46.8248C575.239 45.3481 573.677 43.6976 572.463 42.134C571.248 40.5704 570.381 38.9199 570.034 36.2271C569.6 33.4474 569.687 29.5384 570.12 26.7586C570.554 23.9789 571.248 22.2416 572.202 20.5042C573.157 18.7669 574.371 17.0296 576.02 15.9003C577.668 14.6842 579.837 14.0761 581.919 14.163C584.001 14.2499 586.083 15.0317 586.517 15.9872C586.95 16.9427 585.649 17.9851 585.823 19.983C585.909 21.981 587.471 24.9344 588.946 26.8455C590.421 28.6697 591.895 29.4515 593.457 29.4515C595.018 29.4515 596.58 28.6697 598.142 26.7586C599.703 24.8476 601.178 21.8072 603.26 18.6801C605.342 15.5529 607.945 12.4257 609.246 10.8621C610.547 9.29847 610.547 9.29847 607.945 9.55907C605.342 9.81967 600.224 10.3409 595.973 9.7328C591.635 9.12473 588.165 7.3874 585.562 6.25814C582.96 5.21574 581.398 4.78141 579.663 4.78141C577.928 4.78141 576.02 5.04201 574.111 6.43187C572.202 7.73487 570.294 10.1671 569.079 11.6439C567.865 13.1206 567.431 13.7287 566.997 12.6863C566.564 11.6439 566.303 8.86414 565.956 6.86621C565.609 4.86828 565.349 3.65214 565.002 2.78348C564.655 1.91481 564.221 1.13302 563.787 0.611816C563.354 1.13302 563.007 1.91481 562.66 2.87035C562.313 3.82588 562.052 5.12888 561.792 7.1268C561.445 9.12473 561.098 11.8176 560.751 12.86C560.317 13.9024 559.884 13.2943 558.669 11.8176C557.454 10.3409 555.546 7.9086 553.637 6.60561C551.729 5.30261 549.82 4.95514 548.085 4.95514C546.35 4.95514 544.702 5.38947 542.186 6.43187C539.583 7.47427 536.113 9.29847 531.776 9.90653C527.438 10.5146 522.32 9.9934 519.804 9.7328C517.201 9.4722 517.201 9.4722 518.502 11.0358C519.804 12.5994 522.406 15.7266 524.488 18.8538C526.57 21.981 528.045 25.0213 529.607 26.9324C531.168 28.8434 532.73 29.6252 534.291 29.6252C535.853 29.6252 537.328 28.8434 538.803 27.0192C540.277 25.195 541.839 22.1547 541.926 20.1568C542.012 18.1589 540.798 17.0296 541.232 16.1609C541.665 15.2054 543.748 14.4236 545.83 14.3367C547.912 14.2499 550.08 14.8579 551.729 16.0741C553.377 17.2902 554.592 19.0275 555.546 20.678C556.5 22.4153 557.194 24.0658 557.628 26.9324C558.062 29.7121 558.062 33.6211 557.715 36.4008C557.281 39.1806 556.5 40.7441 555.286 42.3077C554.071 43.8713 552.51 45.5218 550.341 46.9985C548.172 48.4753 545.396 49.8651 542.707 49.952C540.017 50.0389 537.328 48.7359 528.913 42.134C520.498 35.5322 506.184 23.5446 497.248 16.769C488.313 9.9934 484.582 8.4298 481.025 7.82174C477.468 7.30054 473.998 7.73487 470.441 9.12473C466.798 10.4277 463.067 12.6863 460.205 15.2054C457.342 17.8114 455.346 20.7648 453.785 23.9789C452.223 27.193 451.096 30.7545 451.182 35.011C451.269 39.2674 452.657 44.2188 454.913 48.3884C457.168 52.4711 460.378 55.6852 463.588 57.8568C466.885 60.0285 470.268 61.1578 473.825 61.0709C477.382 61.0709 481.025 59.8548 483.454 58.6386C485.883 57.3356 487.011 55.9458 488.66 56.1195C490.308 56.2933 492.477 58.0306 495.426 58.6386C498.376 59.3336 502.106 58.8992 504.015 58.6386C505.923 58.4649 505.923 58.4649 504.275 57.2488C502.627 56.0327 499.417 53.6873 497.161 50.9075C494.906 48.1278 493.691 44.9137 492.303 42.4815C490.915 39.9623 489.354 38.1381 487.185 38.1381C485.016 38.0513 482.327 39.7886 480.505 41.6997C478.596 43.6107 477.555 45.6955 477.382 47.346C477.208 49.0833 477.989 50.4732 478.336 51.1681C478.683 51.8631 478.683 51.8631 477.382 51.7762C475.994 51.6893 473.304 51.4287 470.962 50.2126C468.62 48.9965 466.538 46.8248 464.976 43.8713C463.414 40.9179 462.2 37.0957 462.634 33.3605C463.067 29.6252 465.063 25.9768 468.099 23.284C471.135 20.5911 475.3 18.9407 478.856 19.1144C482.413 19.2013 485.363 21.1123 494.385 28.4091C503.407 35.7059 518.416 48.3015 527.525 55.0771C536.634 61.8527 539.844 62.7214 542.967 62.3739C546.09 62.0264 549.213 60.4628 551.642 58.8124C554.071 57.2488 555.806 55.5983 557.368 54.2085C558.929 52.8186 560.231 51.6025 560.838 50.9944C561.532 50.3863 561.532 50.3863 561.879 51.255C564.742 58.1175 563.092 58.134 565.87 51.0813Z" stroke="#1D1D1D" style="stroke:#1D1D1D;stroke:color(display-p3 0.1129 0.1129 0.1129);stroke-opacity:1;" stroke-width="0.782615"/>
<path fill-rule="evenodd" clip-rule="evenodd" d="M791.263 51.0813C791.696 50.2126 791.696 50.2126 792.304 50.8207C792.911 51.4287 794.212 52.6449 795.774 54.0347C797.335 55.4246 799.07 57.075 801.499 58.6386C803.929 60.2022 806.965 61.8527 810.175 62.2002C813.298 62.5476 816.508 61.679 825.617 54.9034C834.726 48.1278 849.734 35.5322 858.756 28.2354C867.779 20.9386 870.728 19.0275 874.285 18.9407C877.842 18.8538 881.919 20.5042 885.042 23.1102C888.079 25.8031 890.074 29.4515 890.508 33.1868C890.942 36.922 889.727 40.7441 888.166 43.6976C886.604 46.6511 884.522 48.8227 882.18 50.0389C879.837 51.255 877.061 51.4287 875.76 51.6025C874.372 51.6893 874.372 51.6893 874.806 50.9944C875.153 50.2995 875.933 48.9096 875.76 47.1723C875.586 45.4349 874.545 43.3501 872.637 41.5259C870.728 39.6149 868.039 37.9644 865.957 37.9644C863.788 38.0513 862.226 39.8755 860.838 42.3077C859.45 44.8269 858.236 47.9541 855.98 50.7338C853.725 53.5135 850.515 55.8589 848.867 57.0751C847.218 58.2912 847.218 58.2912 849.127 58.4649C851.035 58.6386 854.766 59.073 857.715 58.4649C860.665 57.77 862.834 56.1195 864.482 55.9458C866.13 55.7721 867.258 57.2488 869.687 58.4649C872.116 59.7679 875.76 60.8972 879.317 60.8972C882.874 60.8972 886.257 59.8548 889.554 57.6831C892.85 55.5115 895.973 52.2974 898.229 48.2147C900.484 44.1319 901.872 39.0937 901.959 34.8372C902.046 30.5808 900.918 27.0192 899.357 23.8052C897.795 20.5911 895.8 17.6377 892.937 15.0317C890.074 12.4257 886.344 10.254 882.7 8.951C879.056 7.648 875.673 7.1268 872.116 7.648C868.559 8.1692 864.916 9.81967 855.893 16.5953C846.958 23.3708 832.73 35.3584 824.229 41.9603C815.814 48.5621 813.124 49.8651 810.435 49.7783C807.746 49.6914 804.97 48.3015 802.801 46.8248C800.632 45.3481 799.07 43.6976 797.856 42.134C796.641 40.5704 795.774 38.9199 795.427 36.2271C794.993 33.4474 795.08 29.5384 795.514 26.7586C795.947 23.9789 796.641 22.2416 797.596 20.5042C798.55 18.7669 799.764 17.0296 801.413 15.9003C803.061 14.6842 805.23 14.0761 807.312 14.163C809.394 14.2499 811.476 15.0317 811.91 15.9872C812.344 16.9427 811.042 17.9851 811.216 19.983C811.303 21.981 812.864 24.9344 814.339 26.8455C815.814 28.6697 817.288 29.4515 818.85 29.4515C820.412 29.4515 821.973 28.6697 823.535 26.7586C825.096 24.8476 826.571 21.8072 828.653 18.6801C830.735 15.5529 833.338 12.4257 834.639 10.8621C835.94 9.29847 835.94 9.29847 833.338 9.55907C830.735 9.81967 825.617 10.3409 821.366 9.7328C817.028 9.12473 813.558 7.3874 810.956 6.25814C808.353 5.21574 806.791 4.78141 805.056 4.78141C803.321 4.78141 801.413 5.04201 799.504 6.43187C797.596 7.73487 795.687 10.1671 794.472 11.6439C793.258 13.1206 792.824 13.7287 792.39 12.6863C791.957 11.6439 791.696 8.86414 791.349 6.86621C791.002 4.86828 790.742 3.65214 790.395 2.78348C790.048 1.91481 789.614 1.13302 789.181 0.611816C788.747 1.13302 788.4 1.91481 788.053 2.87035C787.706 3.82588 787.446 5.12888 787.185 7.1268C786.838 9.12473 786.491 11.8176 786.144 12.86C785.71 13.9024 785.277 13.2943 784.062 11.8176C782.848 10.3409 780.939 7.9086 779.03 6.60561C777.122 5.30261 775.213 4.95514 773.478 4.95514C771.743 4.95514 770.095 5.38947 767.579 6.43187C764.977 7.47427 761.506 9.29847 757.169 9.90653C752.831 10.5146 747.713 9.9934 745.197 9.7328C742.594 9.4722 742.594 9.4722 743.896 11.0358C745.197 12.5994 747.799 15.7266 749.882 18.8538C751.964 21.981 753.438 25.0213 755 26.9324C756.562 28.8434 758.123 29.6252 759.685 29.6252C761.246 29.6252 762.721 28.8434 764.196 27.0192C765.671 25.195 767.232 22.1547 767.319 20.1568C767.406 18.1589 766.191 17.0296 766.625 16.1609C767.059 15.2054 769.141 14.4236 771.223 14.3367C773.305 14.2499 775.474 14.8579 777.122 16.0741C778.77 17.2902 779.985 19.0275 780.939 20.678C781.893 22.4153 782.587 24.0658 783.021 26.9324C783.455 29.7121 783.455 33.6211 783.108 36.4008C782.674 39.1806 781.893 40.7441 780.679 42.3077C779.464 43.8713 777.903 45.5218 775.734 46.9985C773.565 48.4753 770.789 49.8651 768.1 49.952C765.41 50.0389 762.721 48.7359 754.306 42.134C745.891 35.5322 731.577 23.5446 722.641 16.769C713.706 9.9934 709.975 8.4298 706.418 7.82174C702.862 7.30054 699.391 7.73487 695.835 9.12473C692.191 10.4277 688.461 12.6863 685.598 15.2054C682.735 17.8114 680.74 20.7648 679.178 23.9789C677.616 27.193 676.489 30.7545 676.575 35.011C676.662 39.2674 678.05 44.2188 680.306 48.3884C682.561 52.4711 685.771 55.6852 688.981 57.8568C692.278 60.0285 695.661 61.1578 699.218 61.0709C702.775 61.0709 706.418 59.8548 708.847 58.6386C711.277 57.3356 712.404 55.9458 714.053 56.1195C715.701 56.2933 717.87 58.0306 720.819 58.6386C723.769 59.3336 727.499 58.8992 729.408 58.6386C731.316 58.4649 731.316 58.4649 729.668 57.2488C728.02 56.0327 724.81 53.6873 722.554 50.9075C720.299 48.1278 719.084 44.9137 717.696 42.4815C716.308 39.9623 714.747 38.1381 712.578 38.1381C710.409 38.0513 707.72 39.7886 705.898 41.6997C703.989 43.6107 702.948 45.6955 702.775 47.346C702.601 49.0833 703.382 50.4732 703.729 51.1681C704.076 51.8631 704.076 51.8631 702.775 51.7762C701.387 51.6893 698.697 51.4287 696.355 50.2126C694.013 48.9965 691.931 46.8248 690.369 43.8713C688.808 40.9179 687.593 37.0957 688.027 33.3605C688.461 29.6252 690.456 25.9768 693.492 23.284C696.529 20.5911 700.693 18.9407 704.25 19.1144C707.806 19.2013 710.756 21.1123 719.778 28.4091C728.801 35.7059 743.809 48.3015 752.918 55.0771C762.027 61.8527 765.237 62.7214 768.36 62.3739C771.483 62.0264 774.606 60.4628 777.035 58.8124C779.464 57.2488 781.199 55.5983 782.761 54.2085C784.322 52.8186 785.624 51.6025 786.231 50.9944C786.925 50.3863 786.925 50.3863 787.272 51.255C790.135 58.1175 788.485 58.134 791.263 51.0813Z" stroke="#1D1D1D" style="stroke:#1D1D1D;stroke:color(display-p3 0.1129 0.1129 0.1129);stroke-opacity:1;" stroke-width="0.782615"/>
</g>
</svg>
