<svg width="1440" height="62" viewBox="0 0 1440 62" fill="none" xmlns="http://www.w3.org/2000/svg">
<path fill-rule="evenodd" clip-rule="evenodd" d="M114.692 50.4694C115.126 49.6008 115.126 49.6008 115.733 50.2088C116.34 50.8169 117.641 52.033 119.203 53.4229C120.765 54.8128 122.5 56.4632 124.929 58.0268C127.358 59.5904 130.394 61.2409 133.604 61.5884C136.727 61.9358 139.937 61.0672 149.046 54.2916C158.155 47.516 173.163 34.9203 182.186 27.6236C191.208 20.3268 194.157 18.4157 197.714 18.3288C201.271 18.242 205.349 19.8924 208.472 22.4984C211.508 25.1913 213.503 28.8397 213.937 32.5749C214.371 36.3102 213.156 40.1323 211.595 43.0858C210.033 46.0392 207.951 48.2109 205.609 49.427C203.267 50.6432 200.49 50.8169 199.189 50.9906C197.801 51.0775 197.801 51.0775 198.235 50.3826C198.582 49.6876 199.363 48.2978 199.189 46.5605C199.016 44.8231 197.975 42.7383 196.066 40.9141C194.157 39.0031 191.468 37.3526 189.386 37.3526C187.217 37.4395 185.656 39.2637 184.268 41.6959C182.88 44.2151 181.665 47.3422 179.409 50.122C177.154 52.9017 173.944 55.2471 172.296 56.4632C170.647 57.6794 170.647 57.6794 172.556 57.8531C174.465 58.0268 178.195 58.4612 181.145 57.8531C184.094 57.1582 186.263 55.5077 187.911 55.334C189.56 55.1602 190.687 56.637 193.116 57.8531C195.546 59.1561 199.189 60.2854 202.746 60.2854C206.303 60.2854 209.686 59.243 212.983 57.0713C216.279 54.8996 219.403 51.6856 221.658 47.6028C223.914 43.5201 225.302 38.4819 225.388 34.2254C225.475 29.9689 224.347 26.4074 222.786 23.1934C221.224 19.9793 219.229 17.0258 216.366 14.4198C213.503 11.8138 209.773 9.64218 206.129 8.33919C202.486 7.03619 199.102 6.51499 195.546 7.03619C191.989 7.55739 188.345 9.20785 179.323 15.9834C170.387 22.759 156.16 34.7466 147.658 41.3485C139.243 47.9503 136.554 49.2533 133.864 49.1664C131.175 49.0796 128.399 47.6897 126.23 46.213C124.061 44.7363 122.5 43.0858 121.285 41.5222C120.071 39.9586 119.203 38.3081 118.856 35.6153C118.422 32.8355 118.509 28.9265 118.943 26.1468C119.377 23.3671 120.071 21.6298 121.025 19.8924C121.979 18.1551 123.194 16.4178 124.842 15.2885C126.49 14.0724 128.659 13.4643 130.741 13.5512C132.823 13.638 134.905 14.4198 135.339 15.3754C135.773 16.3309 134.472 17.3733 134.645 19.3712C134.732 21.3692 136.293 24.3226 137.768 26.2337C139.243 28.0579 140.718 28.8397 142.279 28.8397C143.841 28.8397 145.402 28.0579 146.964 26.1468C148.525 24.2358 150 21.1954 152.082 18.0682C154.164 14.941 156.767 11.8138 158.068 10.2502C159.37 8.68665 159.37 8.68665 156.767 8.94725C154.164 9.20785 149.046 9.72905 144.795 9.12098C140.457 8.51292 136.987 6.77559 134.385 5.64632C131.782 4.60393 130.221 4.16959 128.486 4.16959C126.751 4.16959 124.842 4.43019 122.933 5.82006C121.025 7.12305 119.116 9.55532 117.902 11.032C116.687 12.5088 116.253 13.1168 115.82 12.0744C115.386 11.032 115.126 8.25232 114.779 6.25439C114.432 4.25646 114.171 3.04033 113.824 2.17166C113.477 1.303 113.044 0.521199 112.61 0C112.176 0.521199 111.829 1.303 111.482 2.25853C111.135 3.21406 110.875 4.51706 110.615 6.51499C110.267 8.51292 109.92 11.2058 109.573 12.2482C109.14 13.2906 108.706 12.6825 107.491 11.2058C106.277 9.72905 104.368 7.29679 102.46 5.99379C100.551 4.69079 98.6426 4.34333 96.9076 4.34333C95.1725 4.34333 93.5242 4.77766 91.0084 5.82006C88.4058 6.86245 84.9357 8.68665 80.598 9.29472C76.2604 9.90278 71.142 9.38158 68.6262 9.12098C66.0236 8.86038 66.0236 8.86038 67.3249 10.424C68.6262 11.9876 71.2287 15.1148 73.3108 18.242C75.3929 21.3692 76.8677 24.4095 78.4292 26.3206C79.9908 28.2316 81.5523 29.0134 83.1139 29.0134C84.6754 29.0134 86.1502 28.2316 87.625 26.4074C89.0998 24.5832 90.6614 21.5429 90.7481 19.545C90.8349 17.547 89.6203 16.4178 90.0541 15.5491C90.4879 14.5936 92.5699 13.8118 94.652 13.7249C96.7341 13.638 98.9029 14.2461 100.551 15.4622C102.199 16.6784 103.414 18.4157 104.368 20.0662C105.323 21.8035 106.017 23.454 106.45 26.3206C106.884 29.1003 106.884 33.0093 106.537 35.789C106.103 38.5687 105.323 40.1323 104.108 41.6959C102.894 43.2595 101.332 44.91 99.1631 46.3867C96.9943 47.8634 94.2182 49.2533 91.5289 49.3402C88.8396 49.427 86.1502 48.124 77.7352 41.5222C69.3202 34.9203 55.006 22.9328 46.0704 16.1572C37.1349 9.38158 33.4045 7.81799 29.8477 7.20992C26.2908 6.68872 22.8207 7.12305 19.2638 8.51292C15.6202 9.81592 11.8898 12.0744 9.02698 14.5936C6.16413 17.1996 4.16882 20.153 2.60727 23.3671C1.04572 26.5812 -0.0820691 30.1427 0.00468367 34.3991C0.0914365 38.6556 1.47948 43.607 3.73505 47.7766C5.99063 51.8593 9.20048 55.0734 12.4103 57.245C15.7069 59.4167 19.0903 60.546 22.6472 60.4591C26.204 60.4591 29.8477 59.243 32.2767 58.0268C34.7058 56.7238 35.8336 55.334 37.4819 55.5077C39.1302 55.6814 41.299 57.4188 44.2486 58.0268C47.1982 58.7218 50.9286 58.2874 52.8372 58.0268C54.7457 57.8531 54.7457 57.8531 53.0974 56.637C51.4491 55.4208 48.2392 53.0754 45.9837 50.2957C43.7281 47.516 42.5136 44.3019 41.1255 41.8697C39.7375 39.3505 38.1759 37.5263 36.0071 37.5263C33.8383 37.4395 31.1489 39.1768 29.3271 41.0879C27.4186 42.9989 26.3775 45.0837 26.204 46.7342C26.0305 48.4715 26.8113 49.8614 27.1583 50.5563C27.5053 51.2512 27.5053 51.2512 26.204 51.1644C24.816 51.0775 22.1266 50.8169 19.7843 49.6008C17.442 48.3846 15.3599 46.213 13.7984 43.2595C12.2368 40.3061 11.0223 36.4839 11.4561 32.7487C11.8898 29.0134 13.8851 25.365 16.9215 22.6722C19.9578 19.9793 24.122 18.3288 27.6788 18.5026C31.2357 18.5894 34.1853 20.5005 43.2076 27.7973C52.2299 35.0941 67.2381 47.6897 76.3472 54.4653C85.4562 61.2409 88.6661 62.1096 91.7892 61.7621C94.9123 61.4146 98.0354 59.851 100.464 58.2006C102.894 56.637 104.629 54.9865 106.19 53.5966C107.752 52.2068 109.053 50.9906 109.66 50.3826C110.354 49.7745 110.354 49.7745 110.701 50.6432C113.564 57.5056 111.914 57.5222 114.692 50.4694Z" fill="#1D49C5" style="fill:#1D49C5;fill:color(display-p3 0.1137 0.2863 0.7725);fill-opacity:1;"/>
<path fill-rule="evenodd" clip-rule="evenodd" d="M340.085 50.4694C340.519 49.6008 340.519 49.6008 341.126 50.2088C341.733 50.8169 343.035 52.033 344.596 53.4229C346.158 54.8128 347.893 56.4632 350.322 58.0268C352.751 59.5904 355.787 61.2409 358.997 61.5884C362.12 61.9358 365.33 61.0672 374.439 54.2916C383.548 47.516 398.556 34.9203 407.579 27.6236C416.601 20.3268 419.551 18.4157 423.108 18.3288C426.664 18.242 430.742 19.8924 433.865 22.4984C436.901 25.1913 438.897 28.8397 439.33 32.5749C439.764 36.3102 438.55 40.1323 436.988 43.0858C435.426 46.0392 433.344 48.2109 431.002 49.427C428.66 50.6432 425.884 50.8169 424.582 50.9906C423.194 51.0775 423.194 51.0775 423.628 50.3826C423.975 49.6876 424.756 48.2978 424.582 46.5605C424.409 44.8231 423.368 42.7383 421.459 40.9141C419.551 39.0031 416.861 37.3526 414.779 37.3526C412.61 37.4395 411.049 39.2637 409.661 41.6959C408.273 44.2151 407.058 47.3422 404.803 50.122C402.547 52.9017 399.337 55.2471 397.689 56.4632C396.041 57.6794 396.041 57.6794 397.949 57.8531C399.858 58.0268 403.588 58.4612 406.538 57.8531C409.487 57.1582 411.656 55.5077 413.304 55.334C414.953 55.1602 416.081 56.637 418.51 57.8531C420.939 59.1561 424.582 60.2854 428.139 60.2854C431.696 60.2854 435.079 59.243 438.376 57.0713C441.673 54.8996 444.796 51.6856 447.051 47.6028C449.307 43.5201 450.695 38.4819 450.782 34.2254C450.868 29.9689 449.741 26.4074 448.179 23.1934C446.618 19.9793 444.622 17.0258 441.759 14.4198C438.897 11.8138 435.166 9.64218 431.523 8.33919C427.879 7.03619 424.496 6.51499 420.939 7.03619C417.382 7.55739 413.738 9.20785 404.716 15.9834C395.78 22.759 381.553 34.7466 373.051 41.3485C364.636 47.9503 361.947 49.2533 359.257 49.1664C356.568 49.0796 353.792 47.6897 351.623 46.213C349.454 44.7363 347.893 43.0858 346.678 41.5222C345.464 39.9586 344.596 38.3081 344.249 35.6153C343.815 32.8355 343.902 28.9265 344.336 26.1468C344.77 23.3671 345.464 21.6298 346.418 19.8924C347.372 18.1551 348.587 16.4178 350.235 15.2885C351.883 14.0724 354.052 13.4643 356.134 13.5512C358.216 13.638 360.298 14.4198 360.732 15.3754C361.166 16.3309 359.865 17.3733 360.038 19.3712C360.125 21.3692 361.687 24.3226 363.161 26.2337C364.636 28.0579 366.111 28.8397 367.672 28.8397C369.234 28.8397 370.796 28.0579 372.357 26.1468C373.919 24.2358 375.393 21.1954 377.476 18.0682C379.558 14.941 382.16 11.8138 383.461 10.2502C384.763 8.68665 384.763 8.68665 382.16 8.94725C379.558 9.20785 374.439 9.72905 370.188 9.12098C365.851 8.51292 362.381 6.77559 359.778 5.64632C357.175 4.60393 355.614 4.16959 353.879 4.16959C352.144 4.16959 350.235 4.43019 348.327 5.82006C346.418 7.12305 344.509 9.55532 343.295 11.032C342.08 12.5088 341.647 13.1168 341.213 12.0744C340.779 11.032 340.519 8.25232 340.172 6.25439C339.825 4.25646 339.565 3.04033 339.218 2.17166C338.871 1.303 338.437 0.521199 338.003 0C337.569 0.521199 337.222 1.303 336.875 2.25853C336.528 3.21406 336.268 4.51706 336.008 6.51499C335.661 8.51292 335.314 11.2058 334.967 12.2482C334.533 13.2906 334.099 12.6825 332.885 11.2058C331.67 9.72905 329.761 7.29679 327.853 5.99379C325.944 4.69079 324.036 4.34333 322.301 4.34333C320.566 4.34333 318.917 4.77766 316.402 5.82006C313.799 6.86245 310.329 8.68665 305.991 9.29472C301.654 9.90278 296.535 9.38158 294.019 9.12098C291.417 8.86038 291.417 8.86038 292.718 10.424C294.019 11.9876 296.622 15.1148 298.704 18.242C300.786 21.3692 302.261 24.4095 303.822 26.3206C305.384 28.2316 306.946 29.0134 308.507 29.0134C310.069 29.0134 311.543 28.2316 313.018 26.4074C314.493 24.5832 316.055 21.5429 316.141 19.545C316.228 17.547 315.014 16.4178 315.447 15.5491C315.881 14.5936 317.963 13.8118 320.045 13.7249C322.127 13.638 324.296 14.2461 325.944 15.4622C327.593 16.6784 328.807 18.4157 329.761 20.0662C330.716 21.8035 331.41 23.454 331.844 26.3206C332.277 29.1003 332.277 33.0093 331.93 35.789C331.497 38.5687 330.716 40.1323 329.501 41.6959C328.287 43.2595 326.725 44.91 324.556 46.3867C322.388 47.8634 319.611 49.2533 316.922 49.3402C314.233 49.427 311.543 48.124 303.128 41.5222C294.713 34.9203 280.399 22.9328 271.464 16.1572C262.528 9.38158 258.798 7.81799 255.241 7.20992C251.684 6.68872 248.214 7.12305 244.657 8.51292C241.013 9.81592 237.283 12.0744 234.42 14.5936C231.557 17.1996 229.562 20.153 228 23.3671C226.439 26.5812 225.311 30.1427 225.398 34.3991C225.485 38.6556 226.873 43.607 229.128 47.7766C231.384 51.8593 234.594 55.0734 237.804 57.245C241.1 59.4167 244.483 60.546 248.04 60.4591C251.597 60.4591 255.241 59.243 257.67 58.0268C260.099 56.7238 261.227 55.334 262.875 55.5077C264.523 55.6814 266.692 57.4188 269.642 58.0268C272.591 58.7218 276.322 58.2874 278.23 58.0268C280.139 57.8531 280.139 57.8531 278.491 56.637C276.842 55.4208 273.632 53.0754 271.377 50.2957C269.121 47.516 267.907 44.3019 266.519 41.8697C265.131 39.3505 263.569 37.5263 261.4 37.5263C259.231 37.4395 256.542 39.1768 254.72 41.0879C252.812 42.9989 251.771 45.0837 251.597 46.7342C251.424 48.4715 252.204 49.8614 252.552 50.5563C252.899 51.2512 252.899 51.2512 251.597 51.1644C250.209 51.0775 247.52 50.8169 245.178 49.6008C242.835 48.3846 240.753 46.213 239.192 43.2595C237.63 40.3061 236.415 36.4839 236.849 32.7487C237.283 29.0134 239.278 25.365 242.315 22.6722C245.351 19.9793 249.515 18.3288 253.072 18.5026C256.629 18.5894 259.578 20.5005 268.601 27.7973C277.623 35.0941 292.631 47.6897 301.74 54.4653C310.849 61.2409 314.059 62.1096 317.182 61.7621C320.305 61.4146 323.429 59.851 325.858 58.2006C328.287 56.637 330.022 54.9865 331.583 53.5966C333.145 52.2068 334.446 50.9906 335.053 50.3826C335.747 49.7745 335.747 49.7745 336.094 50.6432C338.957 57.5056 337.307 57.5222 340.085 50.4694Z" fill="#1D49C5" style="fill:#1D49C5;fill:color(display-p3 0.1137 0.2863 0.7725);fill-opacity:1;"/>
<path fill-rule="evenodd" clip-rule="evenodd" d="M565.478 50.4694C565.912 49.6008 565.912 49.6008 566.519 50.2088C567.127 50.8169 568.428 52.033 569.989 53.4229C571.551 54.8128 573.286 56.4632 575.715 58.0268C578.144 59.5904 581.18 61.2409 584.39 61.5884C587.513 61.9358 590.723 61.0672 599.832 54.2916C608.941 47.516 623.95 34.9203 632.972 27.6236C641.994 20.3268 644.944 18.4157 648.501 18.3288C652.058 18.242 656.135 19.8924 659.258 22.4984C662.294 25.1913 664.29 28.8397 664.723 32.5749C665.157 36.3102 663.943 40.1323 662.381 43.0858C660.82 46.0392 658.737 48.2109 656.395 49.427C654.053 50.6432 651.277 50.8169 649.975 50.9906C648.587 51.0775 648.587 51.0775 649.021 50.3826C649.368 49.6876 650.149 48.2978 649.975 46.5605C649.802 44.8231 648.761 42.7383 646.852 40.9141C644.944 39.0031 642.254 37.3526 640.172 37.3526C638.004 37.4395 636.442 39.2637 635.054 41.6959C633.666 44.2151 632.451 47.3422 630.196 50.122C627.94 52.9017 624.73 55.2471 623.082 56.4632C621.434 57.6794 621.434 57.6794 623.342 57.8531C625.251 58.0268 628.981 58.4612 631.931 57.8531C634.88 57.1582 637.049 55.5077 638.698 55.334C640.346 55.1602 641.474 56.637 643.903 57.8531C646.332 59.1561 649.975 60.2854 653.532 60.2854C657.089 60.2854 660.473 59.243 663.769 57.0713C667.066 54.8996 670.189 51.6856 672.444 47.6028C674.7 43.5201 676.088 38.4819 676.175 34.2254C676.262 29.9689 675.134 26.4074 673.572 23.1934C672.011 19.9793 670.015 17.0258 667.153 14.4198C664.29 11.8138 660.559 9.64218 656.916 8.33919C653.272 7.03619 649.889 6.51499 646.332 7.03619C642.775 7.55739 639.131 9.20785 630.109 15.9834C621.174 22.759 606.946 34.7466 598.444 41.3485C590.029 47.9503 587.34 49.2533 584.651 49.1664C581.961 49.0796 579.185 47.6897 577.016 46.213C574.848 44.7363 573.286 43.0858 572.071 41.5222C570.857 39.9586 569.989 38.3081 569.642 35.6153C569.209 32.8355 569.295 28.9265 569.729 26.1468C570.163 23.3671 570.857 21.6298 571.811 19.8924C572.765 18.1551 573.98 16.4178 575.628 15.2885C577.277 14.0724 579.445 13.4643 581.527 13.5512C583.61 13.638 585.692 14.4198 586.125 15.3754C586.559 16.3309 585.258 17.3733 585.431 19.3712C585.518 21.3692 587.08 24.3226 588.554 26.2337C590.029 28.0579 591.504 28.8397 593.066 28.8397C594.627 28.8397 596.189 28.0579 597.75 26.1468C599.312 24.2358 600.787 21.1954 602.869 18.0682C604.951 14.941 607.553 11.8138 608.855 10.2502C610.156 8.68665 610.156 8.68665 607.553 8.94725C604.951 9.20785 599.832 9.72905 595.581 9.12098C591.244 8.51292 587.774 6.77559 585.171 5.64632C582.569 4.60393 581.007 4.16959 579.272 4.16959C577.537 4.16959 575.628 4.43019 573.72 5.82006C571.811 7.12305 569.903 9.55532 568.688 11.032C567.474 12.5088 567.04 13.1168 566.606 12.0744C566.172 11.032 565.912 8.25232 565.565 6.25439C565.218 4.25646 564.958 3.04033 564.611 2.17166C564.264 1.303 563.83 0.521199 563.396 0C562.962 0.521199 562.615 1.303 562.268 2.25853C561.921 3.21406 561.661 4.51706 561.401 6.51499C561.054 8.51292 560.707 11.2058 560.36 12.2482C559.926 13.2906 559.492 12.6825 558.278 11.2058C557.063 9.72905 555.155 7.29679 553.246 5.99379C551.338 4.69079 549.429 4.34333 547.694 4.34333C545.959 4.34333 544.311 4.77766 541.795 5.82006C539.192 6.86245 535.722 8.68665 531.384 9.29472C527.047 9.90278 521.928 9.38158 519.412 9.12098C516.81 8.86038 516.81 8.86038 518.111 10.424C519.412 11.9876 522.015 15.1148 524.097 18.242C526.179 21.3692 527.654 24.4095 529.216 26.3206C530.777 28.2316 532.339 29.0134 533.9 29.0134C535.462 29.0134 536.937 28.2316 538.411 26.4074C539.886 24.5832 541.448 21.5429 541.534 19.545C541.621 17.547 540.407 16.4178 540.84 15.5491C541.274 14.5936 543.356 13.8118 545.438 13.7249C547.52 13.638 549.689 14.2461 551.338 15.4622C552.986 16.6784 554.2 18.4157 555.155 20.0662C556.109 21.8035 556.803 23.454 557.237 26.3206C557.67 29.1003 557.67 33.0093 557.323 35.789C556.89 38.5687 556.109 40.1323 554.894 41.6959C553.68 43.2595 552.118 44.91 549.949 46.3867C547.781 47.8634 545.005 49.2533 542.315 49.3402C539.626 49.427 536.937 48.124 528.522 41.5222C520.106 34.9203 505.792 22.9328 496.857 16.1572C487.921 9.38158 484.191 7.81799 480.634 7.20992C477.077 6.68872 473.607 7.12305 470.05 8.51292C466.407 9.81592 462.676 12.0744 459.813 14.5936C456.95 17.1996 454.955 20.153 453.394 23.3671C451.832 26.5812 450.704 30.1427 450.791 34.3991C450.878 38.6556 452.266 43.607 454.521 47.7766C456.777 51.8593 459.987 55.0734 463.197 57.245C466.493 59.4167 469.877 60.546 473.433 60.4591C476.99 60.4591 480.634 59.243 483.063 58.0268C485.492 56.7238 486.62 55.334 488.268 55.5077C489.917 55.6814 492.085 57.4188 495.035 58.0268C497.985 58.7218 501.715 58.2874 503.623 58.0268C505.532 57.8531 505.532 57.8531 503.884 56.637C502.235 55.4208 499.026 53.0754 496.77 50.2957C494.514 47.516 493.3 44.3019 491.912 41.8697C490.524 39.3505 488.962 37.5263 486.793 37.5263C484.625 37.4395 481.935 39.1768 480.113 41.0879C478.205 42.9989 477.164 45.0837 476.99 46.7342C476.817 48.4715 477.598 49.8614 477.945 50.5563C478.292 51.2512 478.292 51.2512 476.99 51.1644C475.602 51.0775 472.913 50.8169 470.571 49.6008C468.228 48.3846 466.146 46.213 464.585 43.2595C463.023 40.3061 461.809 36.4839 462.242 32.7487C462.676 29.0134 464.671 25.365 467.708 22.6722C470.744 19.9793 474.908 18.3288 478.465 18.5026C482.022 18.5894 484.972 20.5005 493.994 27.7973C503.016 35.0941 518.024 47.6897 527.133 54.4653C536.243 61.2409 539.452 62.1096 542.575 61.7621C545.699 61.4146 548.822 59.851 551.251 58.2006C553.68 56.637 555.415 54.9865 556.976 53.5966C558.538 52.2068 559.839 50.9906 560.447 50.3826C561.141 49.7745 561.141 49.7745 561.488 50.6432C564.35 57.5056 562.7 57.5222 565.478 50.4694Z" fill="#1D49C5" style="fill:#1D49C5;fill:color(display-p3 0.1137 0.2863 0.7725);fill-opacity:1;"/>
<path fill-rule="evenodd" clip-rule="evenodd" d="M790.871 50.4694C791.305 49.6008 791.305 49.6008 791.912 50.2088C792.52 50.8169 793.821 52.033 795.382 53.4229C796.944 54.8128 798.679 56.4632 801.108 58.0268C803.537 59.5904 806.574 61.2409 809.783 61.5884C812.907 61.9358 816.116 61.0672 825.225 54.2916C834.334 47.516 849.343 34.9203 858.365 27.6236C867.387 20.3268 870.337 18.4157 873.894 18.3288C877.451 18.242 881.528 19.8924 884.651 22.4984C887.687 25.1913 889.683 28.8397 890.117 32.5749C890.55 36.3102 889.336 40.1323 887.774 43.0858C886.213 46.0392 884.131 48.2109 881.788 49.427C879.446 50.6432 876.67 50.8169 875.369 50.9906C873.981 51.0775 873.981 51.0775 874.414 50.3826C874.761 49.6876 875.542 48.2978 875.369 46.5605C875.195 44.8231 874.154 42.7383 872.245 40.9141C870.337 39.0031 867.648 37.3526 865.566 37.3526C863.397 37.4395 861.835 39.2637 860.447 41.6959C859.059 44.2151 857.845 47.3422 855.589 50.122C853.333 52.9017 850.124 55.2471 848.475 56.4632C846.827 57.6794 846.827 57.6794 848.735 57.8531C850.644 58.0268 854.374 58.4612 857.324 57.8531C860.274 57.1582 862.442 55.5077 864.091 55.334C865.739 55.1602 866.867 56.637 869.296 57.8531C871.725 59.1561 875.369 60.2854 878.925 60.2854C882.482 60.2854 885.866 59.243 889.162 57.0713C892.459 54.8996 895.582 51.6856 897.838 47.6028C900.093 43.5201 901.481 38.4819 901.568 34.2254C901.655 29.9689 900.527 26.4074 898.965 23.1934C897.404 19.9793 895.408 17.0258 892.546 14.4198C889.683 11.8138 885.952 9.64218 882.309 8.33919C878.665 7.03619 875.282 6.51499 871.725 7.03619C868.168 7.55739 864.524 9.20785 855.502 15.9834C846.567 22.759 832.339 34.7466 823.837 41.3485C815.422 47.9503 812.733 49.2533 810.044 49.1664C807.354 49.0796 804.578 47.6897 802.409 46.213C800.241 44.7363 798.679 43.0858 797.465 41.5222C796.25 39.9586 795.382 38.3081 795.035 35.6153C794.602 32.8355 794.688 28.9265 795.122 26.1468C795.556 23.3671 796.25 21.6298 797.204 19.8924C798.159 18.1551 799.373 16.4178 801.021 15.2885C802.67 14.0724 804.839 13.4643 806.921 13.5512C809.003 13.638 811.085 14.4198 811.519 15.3754C811.952 16.3309 810.651 17.3733 810.824 19.3712C810.911 21.3692 812.473 24.3226 813.948 26.2337C815.422 28.0579 816.897 28.8397 818.459 28.8397C820.02 28.8397 821.582 28.0579 823.143 26.1468C824.705 24.2358 826.18 21.1954 828.262 18.0682C830.344 14.941 832.946 11.8138 834.248 10.2502C835.549 8.68665 835.549 8.68665 832.946 8.94725C830.344 9.20785 825.225 9.72905 820.975 9.12098C816.637 8.51292 813.167 6.77559 810.564 5.64632C807.962 4.60393 806.4 4.16959 804.665 4.16959C802.93 4.16959 801.021 4.43019 799.113 5.82006C797.204 7.12305 795.296 9.55532 794.081 11.032C792.867 12.5088 792.433 13.1168 791.999 12.0744C791.565 11.032 791.305 8.25232 790.958 6.25439C790.611 4.25646 790.351 3.04033 790.004 2.17166C789.657 1.303 789.223 0.521199 788.789 0C788.356 0.521199 788.008 1.303 787.661 2.25853C787.314 3.21406 787.054 4.51706 786.794 6.51499C786.447 8.51292 786.1 11.2058 785.753 12.2482C785.319 13.2906 784.885 12.6825 783.671 11.2058C782.456 9.72905 780.548 7.29679 778.639 5.99379C776.731 4.69079 774.822 4.34333 773.087 4.34333C771.352 4.34333 769.704 4.77766 767.188 5.82006C764.585 6.86245 761.115 8.68665 756.777 9.29472C752.44 9.90278 747.321 9.38158 744.806 9.12098C742.203 8.86038 742.203 8.86038 743.504 10.424C744.806 11.9876 747.408 15.1148 749.49 18.242C751.572 21.3692 753.047 24.4095 754.609 26.3206C756.17 28.2316 757.732 29.0134 759.293 29.0134C760.855 29.0134 762.33 28.2316 763.804 26.4074C765.279 24.5832 766.841 21.5429 766.928 19.545C767.014 17.547 765.8 16.4178 766.234 15.5491C766.667 14.5936 768.749 13.8118 770.831 13.7249C772.914 13.638 775.082 14.2461 776.731 15.4622C778.379 16.6784 779.593 18.4157 780.548 20.0662C781.502 21.8035 782.196 23.454 782.63 26.3206C783.064 29.1003 783.064 33.0093 782.717 35.789C782.283 38.5687 781.502 40.1323 780.287 41.6959C779.073 43.2595 777.511 44.91 775.343 46.3867C773.174 47.8634 770.398 49.2533 767.708 49.3402C765.019 49.427 762.33 48.124 753.915 41.5222C745.5 34.9203 731.185 22.9328 722.25 16.1572C713.314 9.38158 709.584 7.81799 706.027 7.20992C702.47 6.68872 699 7.12305 695.443 8.51292C691.8 9.81592 688.069 12.0744 685.206 14.5936C682.344 17.1996 680.348 20.153 678.787 23.3671C677.225 26.5812 676.097 30.1427 676.184 34.3991C676.271 38.6556 677.659 43.607 679.914 47.7766C682.17 51.8593 685.38 55.0734 688.59 57.245C691.886 59.4167 695.27 60.546 698.827 60.4591C702.383 60.4591 706.027 59.243 708.456 58.0268C710.885 56.7238 712.013 55.334 713.661 55.5077C715.31 55.6814 717.478 57.4188 720.428 58.0268C723.378 58.7218 727.108 58.2874 729.017 58.0268C730.925 57.8531 730.925 57.8531 729.277 56.637C727.629 55.4208 724.419 53.0754 722.163 50.2957C719.908 47.516 718.693 44.3019 717.305 41.8697C715.917 39.3505 714.355 37.5263 712.187 37.5263C710.018 37.4395 707.328 39.1768 705.507 41.0879C703.598 42.9989 702.557 45.0837 702.383 46.7342C702.21 48.4715 702.991 49.8614 703.338 50.5563C703.685 51.2512 703.685 51.2512 702.383 51.1644C700.995 51.0775 698.306 50.8169 695.964 49.6008C693.621 48.3846 691.539 46.213 689.978 43.2595C688.416 40.3061 687.202 36.4839 687.635 32.7487C688.069 29.0134 690.065 25.365 693.101 22.6722C696.137 19.9793 700.301 18.3288 703.858 18.5026C707.415 18.5894 710.365 20.5005 719.387 27.7973C728.409 35.0941 743.418 47.6897 752.527 54.4653C761.636 61.2409 764.845 62.1096 767.969 61.7621C771.092 61.4146 774.215 59.851 776.644 58.2006C779.073 56.637 780.808 54.9865 782.37 53.5966C783.931 52.2068 785.232 50.9906 785.84 50.3826C786.534 49.7745 786.534 49.7745 786.881 50.6432C789.744 57.5056 788.093 57.5222 790.871 50.4694Z" fill="#1D49C5" style="fill:#1D49C5;fill:color(display-p3 0.1137 0.2863 0.7725);fill-opacity:1;"/>
<path fill-rule="evenodd" clip-rule="evenodd" d="M1016.26 50.4694C1016.7 49.6008 1016.7 49.6008 1017.31 50.2088C1017.91 50.8169 1019.21 52.033 1020.78 53.4229C1022.34 54.8128 1024.07 56.4632 1026.5 58.0268C1028.93 59.5904 1031.97 61.2409 1035.18 61.5884C1038.3 61.9358 1041.51 61.0672 1050.62 54.2916C1059.73 47.516 1074.74 34.9203 1083.76 27.6236C1092.78 20.3268 1095.73 18.4157 1099.29 18.3288C1102.84 18.242 1106.92 19.8924 1110.04 22.4984C1113.08 25.1913 1115.08 28.8397 1115.51 32.5749C1115.94 36.3102 1114.73 40.1323 1113.17 43.0858C1111.61 46.0392 1109.52 48.2109 1107.18 49.427C1104.84 50.6432 1102.06 50.8169 1100.76 50.9906C1099.37 51.0775 1099.37 51.0775 1099.81 50.3826C1100.15 49.6876 1100.94 48.2978 1100.76 46.5605C1100.59 44.8231 1099.55 42.7383 1097.64 40.9141C1095.73 39.0031 1093.04 37.3526 1090.96 37.3526C1088.79 37.4395 1087.23 39.2637 1085.84 41.6959C1084.45 44.2151 1083.24 47.3422 1080.98 50.122C1078.73 52.9017 1075.52 55.2471 1073.87 56.4632C1072.22 57.6794 1072.22 57.6794 1074.13 57.8531C1076.04 58.0268 1079.77 58.4612 1082.72 57.8531C1085.67 57.1582 1087.84 55.5077 1089.48 55.334C1091.13 55.1602 1092.26 56.637 1094.69 57.8531C1097.12 59.1561 1100.76 60.2854 1104.32 60.2854C1107.88 60.2854 1111.26 59.243 1114.56 57.0713C1117.85 54.8996 1120.98 51.6856 1123.23 47.6028C1125.49 43.5201 1126.87 38.4819 1126.96 34.2254C1127.05 29.9689 1125.92 26.4074 1124.36 23.1934C1122.8 19.9793 1120.8 17.0258 1117.94 14.4198C1115.08 11.8138 1111.35 9.64218 1107.7 8.33919C1104.06 7.03619 1100.68 6.51499 1097.12 7.03619C1093.56 7.55739 1089.92 9.20785 1080.9 15.9834C1071.96 22.759 1057.73 34.7466 1049.23 41.3485C1040.82 47.9503 1038.13 49.2533 1035.44 49.1664C1032.75 49.0796 1029.97 47.6897 1027.8 46.213C1025.63 44.7363 1024.07 43.0858 1022.86 41.5222C1021.64 39.9586 1020.78 38.3081 1020.43 35.6153C1019.99 32.8355 1020.08 28.9265 1020.52 26.1468C1020.95 23.3671 1021.64 21.6298 1022.6 19.8924C1023.55 18.1551 1024.77 16.4178 1026.41 15.2885C1028.06 14.0724 1030.23 13.4643 1032.31 13.5512C1034.4 13.638 1036.48 14.4198 1036.91 15.3754C1037.35 16.3309 1036.04 17.3733 1036.22 19.3712C1036.3 21.3692 1037.87 24.3226 1039.34 26.2337C1040.82 28.0579 1042.29 28.8397 1043.85 28.8397C1045.41 28.8397 1046.98 28.0579 1048.54 26.1468C1050.1 24.2358 1051.57 21.1954 1053.65 18.0682C1055.74 14.941 1058.34 11.8138 1059.64 10.2502C1060.94 8.68665 1060.94 8.68665 1058.34 8.94725C1055.74 9.20785 1050.62 9.72905 1046.37 9.12098C1042.03 8.51292 1038.56 6.77559 1035.96 5.64632C1033.35 4.60393 1031.79 4.16959 1030.06 4.16959C1028.32 4.16959 1026.41 4.43019 1024.51 5.82006C1022.6 7.12305 1020.69 9.55532 1019.47 11.032C1018.26 12.5088 1017.83 13.1168 1017.39 12.0744C1016.96 11.032 1016.7 8.25232 1016.35 6.25439C1016 4.25646 1015.74 3.04033 1015.4 2.17166C1015.05 1.303 1014.62 0.521199 1014.18 0C1013.75 0.521199 1013.4 1.303 1013.05 2.25853C1012.71 3.21406 1012.45 4.51706 1012.19 6.51499C1011.84 8.51292 1011.49 11.2058 1011.15 12.2482C1010.71 13.2906 1010.28 12.6825 1009.06 11.2058C1007.85 9.72905 1005.94 7.29679 1004.03 5.99379C1002.12 4.69079 1000.22 4.34333 998.48 4.34333C996.745 4.34333 995.097 4.77766 992.581 5.82006C989.978 6.86245 986.508 8.68665 982.171 9.29472C977.833 9.90278 972.715 9.38158 970.199 9.12098C967.596 8.86038 967.596 8.86038 968.897 10.424C970.199 11.9876 972.801 15.1148 974.883 18.242C976.966 21.3692 978.44 24.4095 980.002 26.3206C981.563 28.2316 983.125 29.0134 984.687 29.0134C986.248 29.0134 987.723 28.2316 989.198 26.4074C990.672 24.5832 992.234 21.5429 992.321 19.545C992.408 17.547 991.193 16.4178 991.627 15.5491C992.06 14.5936 994.143 13.8118 996.225 13.7249C998.307 13.638 1000.48 14.2461 1002.12 15.4622C1003.77 16.6784 1004.99 18.4157 1005.94 20.0662C1006.9 21.8035 1007.59 23.454 1008.02 26.3206C1008.46 29.1003 1008.46 33.0093 1008.11 35.789C1007.68 38.5687 1006.9 40.1323 1005.68 41.6959C1004.47 43.2595 1002.9 44.91 1000.74 46.3867C998.567 47.8634 995.791 49.2533 993.102 49.3402C990.412 49.427 987.723 48.124 979.308 41.5222C970.893 34.9203 956.579 22.9328 947.643 16.1572C938.708 9.38158 934.977 7.81799 931.42 7.20992C927.863 6.68872 924.393 7.12305 920.836 8.51292C917.193 9.81592 913.462 12.0744 910.6 14.5936C907.737 17.1996 905.741 20.153 904.18 23.3671C902.618 26.5812 901.491 30.1427 901.577 34.3991C901.664 38.6556 903.052 43.607 905.308 47.7766C907.563 51.8593 910.773 55.0734 913.983 57.245C917.28 59.4167 920.663 60.546 924.22 60.4591C927.777 60.4591 931.42 59.243 933.849 58.0268C936.278 56.7238 937.406 55.334 939.055 55.5077C940.703 55.6814 942.872 57.4188 945.821 58.0268C948.771 58.7218 952.501 58.2874 954.41 58.0268C956.318 57.8531 956.318 57.8531 954.67 56.637C953.022 55.4208 949.812 53.0754 947.556 50.2957C945.301 47.516 944.086 44.3019 942.698 41.8697C941.31 39.3505 939.749 37.5263 937.58 37.5263C935.411 37.4395 932.722 39.1768 930.9 41.0879C928.991 42.9989 927.95 45.0837 927.777 46.7342C927.603 48.4715 928.384 49.8614 928.731 50.5563C929.078 51.2512 929.078 51.2512 927.777 51.1644C926.389 51.0775 923.699 50.8169 921.357 49.6008C919.015 48.3846 916.933 46.213 915.371 43.2595C913.809 40.3061 912.595 36.4839 913.029 32.7487C913.462 29.0134 915.458 25.365 918.494 22.6722C921.53 19.9793 925.695 18.3288 929.251 18.5026C932.808 18.5894 935.758 20.5005 944.78 27.7973C953.803 35.0941 968.811 47.6897 977.92 54.4653C987.029 61.2409 990.239 62.1096 993.362 61.7621C996.485 61.4146 999.608 59.851 1002.04 58.2006C1004.47 56.637 1006.2 54.9865 1007.76 53.5966C1009.32 52.2068 1010.63 50.9906 1011.23 50.3826C1011.93 49.7745 1011.93 49.7745 1012.27 50.6432C1015.14 57.5056 1013.49 57.5222 1016.26 50.4694Z" fill="#1D49C5" style="fill:#1D49C5;fill:color(display-p3 0.1137 0.2863 0.7725);fill-opacity:1;"/>
<path fill-rule="evenodd" clip-rule="evenodd" d="M1241.66 50.4694C1242.09 49.6008 1242.09 49.6008 1242.7 50.2088C1243.31 50.8169 1244.61 52.033 1246.17 53.4229C1247.73 54.8128 1249.47 56.4632 1251.89 58.0268C1254.32 59.5904 1257.36 61.2409 1260.57 61.5884C1263.69 61.9358 1266.9 61.0672 1276.01 54.2916C1285.12 47.516 1300.13 34.9203 1309.15 27.6236C1318.17 20.3268 1321.12 18.4157 1324.68 18.3288C1328.24 18.242 1332.31 19.8924 1335.44 22.4984C1338.47 25.1913 1340.47 28.8397 1340.9 32.5749C1341.34 36.3102 1340.12 40.1323 1338.56 43.0858C1337 46.0392 1334.92 48.2109 1332.57 49.427C1330.23 50.6432 1327.46 50.8169 1326.15 50.9906C1324.77 51.0775 1324.77 51.0775 1325.2 50.3826C1325.55 49.6876 1326.33 48.2978 1326.15 46.5605C1325.98 44.8231 1324.94 42.7383 1323.03 40.9141C1321.12 39.0031 1318.43 37.3526 1316.35 37.3526C1314.18 37.4395 1312.62 39.2637 1311.23 41.6959C1309.85 44.2151 1308.63 47.3422 1306.38 50.122C1304.12 52.9017 1300.91 55.2471 1299.26 56.4632C1297.61 57.6794 1297.61 57.6794 1299.52 57.8531C1301.43 58.0268 1305.16 58.4612 1308.11 57.8531C1311.06 57.1582 1313.23 55.5077 1314.88 55.334C1316.53 55.1602 1317.65 56.637 1320.08 57.8531C1322.51 59.1561 1326.15 60.2854 1329.71 60.2854C1333.27 60.2854 1336.65 59.243 1339.95 57.0713C1343.25 54.8996 1346.37 51.6856 1348.62 47.6028C1350.88 43.5201 1352.27 38.4819 1352.35 34.2254C1352.44 29.9689 1351.31 26.4074 1349.75 23.1934C1348.19 19.9793 1346.19 17.0258 1343.33 14.4198C1340.47 11.8138 1336.74 9.64218 1333.1 8.33919C1329.45 7.03619 1326.07 6.51499 1322.51 7.03619C1318.95 7.55739 1315.31 9.20785 1306.29 15.9834C1297.35 22.759 1283.13 34.7466 1274.62 41.3485C1266.21 47.9503 1263.52 49.2533 1260.83 49.1664C1258.14 49.0796 1255.36 47.6897 1253.2 46.213C1251.03 44.7363 1249.47 43.0858 1248.25 41.5222C1247.04 39.9586 1246.17 38.3081 1245.82 35.6153C1245.39 32.8355 1245.47 28.9265 1245.91 26.1468C1246.34 23.3671 1247.04 21.6298 1247.99 19.8924C1248.94 18.1551 1250.16 16.4178 1251.81 15.2885C1253.46 14.0724 1255.62 13.4643 1257.71 13.5512C1259.79 13.638 1261.87 14.4198 1262.3 15.3754C1262.74 16.3309 1261.44 17.3733 1261.61 19.3712C1261.7 21.3692 1263.26 24.3226 1264.73 26.2337C1266.21 28.0579 1267.68 28.8397 1269.25 28.8397C1270.81 28.8397 1272.37 28.0579 1273.93 26.1468C1275.49 24.2358 1276.97 21.1954 1279.05 18.0682C1281.13 14.941 1283.73 11.8138 1285.03 10.2502C1286.34 8.68665 1286.34 8.68665 1283.73 8.94725C1281.13 9.20785 1276.01 9.72905 1271.76 9.12098C1267.42 8.51292 1263.95 6.77559 1261.35 5.64632C1258.75 4.60393 1257.19 4.16959 1255.45 4.16959C1253.72 4.16959 1251.81 4.43019 1249.9 5.82006C1247.99 7.12305 1246.08 9.55532 1244.87 11.032C1243.65 12.5088 1243.22 13.1168 1242.79 12.0744C1242.35 11.032 1242.09 8.25232 1241.74 6.25439C1241.4 4.25646 1241.14 3.04033 1240.79 2.17166C1240.44 1.303 1240.01 0.521199 1239.58 0C1239.14 0.521199 1238.79 1.303 1238.45 2.25853C1238.1 3.21406 1237.84 4.51706 1237.58 6.51499C1237.23 8.51292 1236.89 11.2058 1236.54 12.2482C1236.11 13.2906 1235.67 12.6825 1234.46 11.2058C1233.24 9.72905 1231.33 7.29679 1229.43 5.99379C1227.52 4.69079 1225.61 4.34333 1223.87 4.34333C1222.14 4.34333 1220.49 4.77766 1217.97 5.82006C1215.37 6.86245 1211.9 8.68665 1207.56 9.29472C1203.23 9.90278 1198.11 9.38158 1195.59 9.12098C1192.99 8.86038 1192.99 8.86038 1194.29 10.424C1195.59 11.9876 1198.19 15.1148 1200.28 18.242C1202.36 21.3692 1203.83 24.4095 1205.4 26.3206C1206.96 28.2316 1208.52 29.0134 1210.08 29.0134C1211.64 29.0134 1213.12 28.2316 1214.59 26.4074C1216.07 24.5832 1217.63 21.5429 1217.71 19.545C1217.8 17.547 1216.59 16.4178 1217.02 15.5491C1217.45 14.5936 1219.54 13.8118 1221.62 13.7249C1223.7 13.638 1225.87 14.2461 1227.52 15.4622C1229.17 16.6784 1230.38 18.4157 1231.33 20.0662C1232.29 21.8035 1232.98 23.454 1233.42 26.3206C1233.85 29.1003 1233.85 33.0093 1233.5 35.789C1233.07 38.5687 1232.29 40.1323 1231.07 41.6959C1229.86 43.2595 1228.3 44.91 1226.13 46.3867C1223.96 47.8634 1221.18 49.2533 1218.49 49.3402C1215.81 49.427 1213.12 48.124 1204.7 41.5222C1196.29 34.9203 1181.97 22.9328 1173.04 16.1572C1164.1 9.38158 1160.37 7.81799 1156.81 7.20992C1153.26 6.68872 1149.79 7.12305 1146.23 8.51292C1142.59 9.81592 1138.86 12.0744 1135.99 14.5936C1133.13 17.1996 1131.13 20.153 1129.57 23.3671C1128.01 26.5812 1126.88 30.1427 1126.97 34.3991C1127.06 38.6556 1128.45 43.607 1130.7 47.7766C1132.96 51.8593 1136.17 55.0734 1139.38 57.245C1142.67 59.4167 1146.06 60.546 1149.61 60.4591C1153.17 60.4591 1156.81 59.243 1159.24 58.0268C1161.67 56.7238 1162.8 55.334 1164.45 55.5077C1166.1 55.6814 1168.26 57.4188 1171.21 58.0268C1174.16 58.7218 1177.89 58.2874 1179.8 58.0268C1181.71 57.8531 1181.71 57.8531 1180.06 56.637C1178.41 55.4208 1175.21 53.0754 1172.95 50.2957C1170.69 47.516 1169.48 44.3019 1168.09 41.8697C1166.7 39.3505 1165.14 37.5263 1162.97 37.5263C1160.8 37.4395 1158.11 39.1768 1156.29 41.0879C1154.38 42.9989 1153.34 45.0837 1153.17 46.7342C1153 48.4715 1153.78 49.8614 1154.12 50.5563C1154.47 51.2512 1154.47 51.2512 1153.17 51.1644C1151.78 51.0775 1149.09 50.8169 1146.75 49.6008C1144.41 48.3846 1142.33 46.213 1140.76 43.2595C1139.2 40.3061 1137.99 36.4839 1138.42 32.7487C1138.86 29.0134 1140.85 25.365 1143.89 22.6722C1146.92 19.9793 1151.09 18.3288 1154.64 18.5026C1158.2 18.5894 1161.15 20.5005 1170.17 27.7973C1179.2 35.0941 1194.2 47.6897 1203.31 54.4653C1212.42 61.2409 1215.63 62.1096 1218.75 61.7621C1221.88 61.4146 1225 59.851 1227.43 58.2006C1229.86 56.637 1231.59 54.9865 1233.16 53.5966C1234.72 52.2068 1236.02 50.9906 1236.63 50.3826C1237.32 49.7745 1237.32 49.7745 1237.67 50.6432C1240.53 57.5056 1238.88 57.5222 1241.66 50.4694Z" fill="#1D49C5" style="fill:#1D49C5;fill:color(display-p3 0.1137 0.2863 0.7725);fill-opacity:1;"/>
<path fill-rule="evenodd" clip-rule="evenodd" d="M1467.05 50.4694C1467.48 49.6008 1467.48 49.6008 1468.09 50.2088C1468.7 50.8169 1470 52.033 1471.56 53.4229C1473.12 54.8128 1474.86 56.4632 1477.29 58.0268C1479.72 59.5904 1482.75 61.2409 1485.96 61.5884C1489.09 61.9358 1492.3 61.0672 1501.41 54.2916C1510.51 47.516 1525.52 34.9203 1534.54 27.6236C1543.57 20.3268 1546.52 18.4157 1550.07 18.3288C1553.63 18.242 1557.71 19.8924 1560.83 22.4984C1563.87 25.1913 1565.86 28.8397 1566.3 32.5749C1566.73 36.3102 1565.52 40.1323 1563.95 43.0858C1562.39 46.0392 1560.31 48.2109 1557.97 49.427C1555.63 50.6432 1552.85 50.8169 1551.55 50.9906C1550.16 51.0775 1550.16 51.0775 1550.59 50.3826C1550.94 49.6876 1551.72 48.2978 1551.55 46.5605C1551.37 44.8231 1550.33 42.7383 1548.43 40.9141C1546.52 39.0031 1543.83 37.3526 1541.75 37.3526C1539.58 37.4395 1538.01 39.2637 1536.63 41.6959C1535.24 44.2151 1534.02 47.3422 1531.77 50.122C1529.51 52.9017 1526.3 55.2471 1524.65 56.4632C1523.01 57.6794 1523.01 57.6794 1524.92 57.8531C1526.82 58.0268 1530.55 58.4612 1533.5 57.8531C1536.45 57.1582 1538.62 55.5077 1540.27 55.334C1541.92 55.1602 1543.05 56.637 1545.48 57.8531C1547.9 59.1561 1551.55 60.2854 1555.1 60.2854C1558.66 60.2854 1562.05 59.243 1565.34 57.0713C1568.64 54.8996 1571.76 51.6856 1574.02 47.6028C1576.27 43.5201 1577.66 38.4819 1577.75 34.2254C1577.83 29.9689 1576.71 26.4074 1575.14 23.1934C1573.58 19.9793 1571.59 17.0258 1568.73 14.4198C1565.86 11.8138 1562.13 9.64218 1558.49 8.33919C1554.84 7.03619 1551.46 6.51499 1547.9 7.03619C1544.35 7.55739 1540.7 9.20785 1531.68 15.9834C1522.75 22.759 1508.52 34.7466 1500.02 41.3485C1491.6 47.9503 1488.91 49.2533 1486.22 49.1664C1483.53 49.0796 1480.76 47.6897 1478.59 46.213C1476.42 44.7363 1474.86 43.0858 1473.64 41.5222C1472.43 39.9586 1471.56 38.3081 1471.22 35.6153C1470.78 32.8355 1470.87 28.9265 1471.3 26.1468C1471.74 23.3671 1472.43 21.6298 1473.38 19.8924C1474.34 18.1551 1475.55 16.4178 1477.2 15.2885C1478.85 14.0724 1481.02 13.4643 1483.1 13.5512C1485.18 13.638 1487.26 14.4198 1487.7 15.3754C1488.13 16.3309 1486.83 17.3733 1487 19.3712C1487.09 21.3692 1488.65 24.3226 1490.13 26.2337C1491.6 28.0579 1493.08 28.8397 1494.64 28.8397C1496.2 28.8397 1497.76 28.0579 1499.32 26.1468C1500.88 24.2358 1502.36 21.1954 1504.44 18.0682C1506.52 14.941 1509.13 11.8138 1510.43 10.2502C1511.73 8.68665 1511.73 8.68665 1509.13 8.94725C1506.52 9.20785 1501.41 9.72905 1497.15 9.12098C1492.82 8.51292 1489.35 6.77559 1486.74 5.64632C1484.14 4.60393 1482.58 4.16959 1480.84 4.16959C1479.11 4.16959 1477.2 4.43019 1475.29 5.82006C1473.38 7.12305 1471.48 9.55532 1470.26 11.032C1469.05 12.5088 1468.61 13.1168 1468.18 12.0744C1467.74 11.032 1467.48 8.25232 1467.14 6.25439C1466.79 4.25646 1466.53 3.04033 1466.18 2.17166C1465.84 1.303 1465.4 0.521199 1464.97 0C1464.54 0.521199 1464.19 1.303 1463.84 2.25853C1463.49 3.21406 1463.23 4.51706 1462.97 6.51499C1462.63 8.51292 1462.28 11.2058 1461.93 12.2482C1461.5 13.2906 1461.06 12.6825 1459.85 11.2058C1458.64 9.72905 1456.73 7.29679 1454.82 5.99379C1452.91 4.69079 1451 4.34333 1449.27 4.34333C1447.53 4.34333 1445.88 4.77766 1443.37 5.82006C1440.76 6.86245 1437.29 8.68665 1432.96 9.29472C1428.62 9.90278 1423.5 9.38158 1420.99 9.12098C1418.38 8.86038 1418.38 8.86038 1419.68 10.424C1420.99 11.9876 1423.59 15.1148 1425.67 18.242C1427.75 21.3692 1429.23 24.4095 1430.79 26.3206C1432.35 28.2316 1433.91 29.0134 1435.47 29.0134C1437.03 29.0134 1438.51 28.2316 1439.98 26.4074C1441.46 24.5832 1443.02 21.5429 1443.11 19.545C1443.19 17.547 1441.98 16.4178 1442.41 15.5491C1442.85 14.5936 1444.93 13.8118 1447.01 13.7249C1449.09 13.638 1451.26 14.2461 1452.91 15.4622C1454.56 16.6784 1455.77 18.4157 1456.73 20.0662C1457.68 21.8035 1458.38 23.454 1458.81 26.3206C1459.24 29.1003 1459.24 33.0093 1458.9 35.789C1458.46 38.5687 1457.68 40.1323 1456.47 41.6959C1455.25 43.2595 1453.69 44.91 1451.52 46.3867C1449.35 47.8634 1446.58 49.2533 1443.89 49.3402C1441.2 49.427 1438.51 48.124 1430.09 41.5222C1421.68 34.9203 1407.36 22.9328 1398.43 16.1572C1389.49 9.38158 1385.76 7.81799 1382.21 7.20992C1378.65 6.68872 1375.18 7.12305 1371.62 8.51292C1367.98 9.81592 1364.25 12.0744 1361.39 14.5936C1358.52 17.1996 1356.53 20.153 1354.97 23.3671C1353.4 26.5812 1352.28 30.1427 1352.36 34.3991C1352.45 38.6556 1353.84 43.607 1356.09 47.7766C1358.35 51.8593 1361.56 55.0734 1364.77 57.245C1368.07 59.4167 1371.45 60.546 1375.01 60.4591C1378.56 60.4591 1382.21 59.243 1384.64 58.0268C1387.06 56.7238 1388.19 55.334 1389.84 55.5077C1391.49 55.6814 1393.66 57.4188 1396.61 58.0268C1399.56 58.7218 1403.29 58.2874 1405.2 58.0268C1407.1 57.8531 1407.1 57.8531 1405.46 56.637C1403.81 55.4208 1400.6 53.0754 1398.34 50.2957C1396.09 47.516 1394.87 44.3019 1393.48 41.8697C1392.1 39.3505 1390.53 37.5263 1388.37 37.5263C1386.2 37.4395 1383.51 39.1768 1381.69 41.0879C1379.78 42.9989 1378.74 45.0837 1378.56 46.7342C1378.39 48.4715 1379.17 49.8614 1379.52 50.5563C1379.86 51.2512 1379.86 51.2512 1378.56 51.1644C1377.17 51.0775 1374.49 50.8169 1372.14 49.6008C1369.8 48.3846 1367.72 46.213 1366.16 43.2595C1364.6 40.3061 1363.38 36.4839 1363.82 32.7487C1364.25 29.0134 1366.24 25.365 1369.28 22.6722C1372.32 19.9793 1376.48 18.3288 1380.04 18.5026C1383.59 18.5894 1386.54 20.5005 1395.57 27.7973C1404.59 35.0941 1419.6 47.6897 1428.71 54.4653C1437.82 61.2409 1441.03 62.1096 1444.15 61.7621C1447.27 61.4146 1450.39 59.851 1452.82 58.2006C1455.25 56.637 1456.99 54.9865 1458.55 53.5966C1460.11 52.2068 1461.41 50.9906 1462.02 50.3826C1462.71 49.7745 1462.71 49.7745 1463.06 50.6432C1465.92 57.5056 1464.27 57.5222 1467.05 50.4694Z" fill="#1D49C5" style="fill:#1D49C5;fill:color(display-p3 0.1137 0.2863 0.7725);fill-opacity:1;"/>
</svg>
