<svg width="226" height="62" viewBox="0 0 226 62" fill="none" xmlns="http://www.w3.org/2000/svg">
<path fill-rule="evenodd" clip-rule="evenodd" d="M114.692 50.4694C115.126 49.6008 115.126 49.6008 115.733 50.2088C116.34 50.8169 117.641 52.033 119.203 53.4229C120.765 54.8128 122.5 56.4632 124.929 58.0268C127.358 59.5904 130.394 61.2409 133.604 61.5884C136.727 61.9358 139.937 61.0672 149.046 54.2916C158.155 47.516 173.163 34.9203 182.186 27.6236C191.208 20.3268 194.157 18.4157 197.714 18.3288C201.271 18.242 205.349 19.8924 208.472 22.4984C211.508 25.1913 213.503 28.8397 213.937 32.5749C214.371 36.3102 213.156 40.1323 211.595 43.0858C210.033 46.0392 207.951 48.2109 205.609 49.427C203.267 50.6432 200.49 50.8169 199.189 50.9906C197.801 51.0775 197.801 51.0775 198.235 50.3826C198.582 49.6876 199.363 48.2978 199.189 46.5605C199.016 44.8231 197.975 42.7383 196.066 40.9141C194.157 39.0031 191.468 37.3526 189.386 37.3526C187.217 37.4395 185.656 39.2637 184.268 41.6959C182.88 44.2151 181.665 47.3422 179.409 50.122C177.154 52.9017 173.944 55.2471 172.296 56.4632C170.647 57.6794 170.647 57.6794 172.556 57.8531C174.465 58.0268 178.195 58.4612 181.145 57.8531C184.094 57.1582 186.263 55.5077 187.911 55.334C189.56 55.1602 190.687 56.637 193.116 57.8531C195.546 59.1561 199.189 60.2854 202.746 60.2854C206.303 60.2854 209.686 59.243 212.983 57.0713C216.279 54.8996 219.403 51.6856 221.658 47.6028C223.914 43.5201 225.302 38.4819 225.388 34.2254C225.475 29.9689 224.347 26.4074 222.786 23.1934C221.224 19.9793 219.229 17.0258 216.366 14.4198C213.503 11.8138 209.773 9.64218 206.129 8.33919C202.486 7.03619 199.102 6.51499 195.546 7.03619C191.989 7.55739 188.345 9.20785 179.323 15.9834C170.387 22.759 156.16 34.7466 147.658 41.3485C139.243 47.9503 136.554 49.2533 133.864 49.1664C131.175 49.0796 128.399 47.6897 126.23 46.213C124.061 44.7363 122.5 43.0858 121.285 41.5222C120.071 39.9586 119.203 38.3081 118.856 35.6153C118.422 32.8355 118.509 28.9265 118.943 26.1468C119.377 23.3671 120.071 21.6298 121.025 19.8924C121.979 18.1551 123.194 16.4178 124.842 15.2885C126.49 14.0724 128.659 13.4643 130.741 13.5512C132.823 13.638 134.905 14.4198 135.339 15.3754C135.773 16.3309 134.472 17.3733 134.645 19.3712C134.732 21.3692 136.293 24.3226 137.768 26.2337C139.243 28.0579 140.718 28.8397 142.279 28.8397C143.841 28.8397 145.402 28.0579 146.964 26.1468C148.525 24.2358 150 21.1954 152.082 18.0682C154.164 14.941 156.767 11.8138 158.068 10.2502C159.37 8.68665 159.37 8.68665 156.767 8.94725C154.164 9.20785 149.046 9.72905 144.795 9.12098C140.457 8.51292 136.987 6.77559 134.385 5.64632C131.782 4.60393 130.221 4.16959 128.486 4.16959C126.751 4.16959 124.842 4.43019 122.933 5.82006C121.025 7.12305 119.116 9.55532 117.902 11.032C116.687 12.5088 116.253 13.1168 115.82 12.0744C115.386 11.032 115.126 8.25232 114.779 6.25439C114.432 4.25646 114.171 3.04033 113.824 2.17166C113.477 1.303 113.044 0.521199 112.61 0C112.176 0.521199 111.829 1.303 111.482 2.25853C111.135 3.21406 110.875 4.51706 110.615 6.51499C110.267 8.51292 109.92 11.2058 109.573 12.2482C109.14 13.2906 108.706 12.6825 107.491 11.2058C106.277 9.72905 104.368 7.29679 102.46 5.99379C100.551 4.69079 98.6426 4.34333 96.9076 4.34333C95.1725 4.34333 93.5242 4.77766 91.0084 5.82006C88.4058 6.86245 84.9357 8.68665 80.598 9.29472C76.2604 9.90278 71.142 9.38158 68.6262 9.12098C66.0236 8.86038 66.0236 8.86038 67.3249 10.424C68.6262 11.9876 71.2287 15.1148 73.3108 18.242C75.3929 21.3692 76.8677 24.4095 78.4292 26.3206C79.9908 28.2316 81.5523 29.0134 83.1139 29.0134C84.6754 29.0134 86.1502 28.2316 87.625 26.4074C89.0998 24.5832 90.6614 21.5429 90.7481 19.545C90.8349 17.547 89.6203 16.4178 90.0541 15.5491C90.4879 14.5936 92.5699 13.8118 94.652 13.7249C96.7341 13.638 98.9029 14.2461 100.551 15.4622C102.199 16.6784 103.414 18.4157 104.368 20.0662C105.323 21.8035 106.017 23.454 106.45 26.3206C106.884 29.1003 106.884 33.0093 106.537 35.789C106.103 38.5687 105.323 40.1323 104.108 41.6959C102.894 43.2595 101.332 44.91 99.1631 46.3867C96.9943 47.8634 94.2182 49.2533 91.5289 49.3402C88.8396 49.427 86.1502 48.124 77.7352 41.5222C69.3202 34.9203 55.006 22.9328 46.0704 16.1572C37.1349 9.38158 33.4045 7.81799 29.8477 7.20992C26.2908 6.68872 22.8207 7.12305 19.2638 8.51292C15.6202 9.81592 11.8898 12.0744 9.02698 14.5936C6.16413 17.1996 4.16882 20.153 2.60727 23.3671C1.04572 26.5812 -0.0820691 30.1427 0.00468367 34.3991C0.0914365 38.6556 1.47948 43.607 3.73505 47.7766C5.99063 51.8593 9.20048 55.0734 12.4103 57.245C15.7069 59.4167 19.0903 60.546 22.6472 60.4591C26.204 60.4591 29.8477 59.243 32.2767 58.0268C34.7058 56.7238 35.8336 55.334 37.4819 55.5077C39.1302 55.6814 41.299 57.4188 44.2486 58.0268C47.1982 58.7218 50.9286 58.2874 52.8372 58.0268C54.7457 57.8531 54.7457 57.8531 53.0974 56.637C51.4491 55.4208 48.2392 53.0754 45.9837 50.2957C43.7281 47.516 42.5136 44.3019 41.1255 41.8697C39.7375 39.3505 38.1759 37.5263 36.0071 37.5263C33.8383 37.4395 31.1489 39.1768 29.3271 41.0879C27.4186 42.9989 26.3775 45.0837 26.204 46.7342C26.0305 48.4715 26.8113 49.8614 27.1583 50.5563C27.5053 51.2512 27.5053 51.2512 26.204 51.1644C24.816 51.0775 22.1266 50.8169 19.7843 49.6008C17.442 48.3846 15.3599 46.213 13.7984 43.2595C12.2368 40.3061 11.0223 36.4839 11.4561 32.7487C11.8898 29.0134 13.8851 25.365 16.9215 22.6722C19.9578 19.9793 24.122 18.3288 27.6788 18.5026C31.2357 18.5894 34.1853 20.5005 43.2076 27.7973C52.2299 35.0941 67.2381 47.6897 76.3472 54.4653C85.4562 61.2409 88.6661 62.1096 91.7892 61.7621C94.9123 61.4146 98.0354 59.851 100.464 58.2006C102.894 56.637 104.629 54.9865 106.19 53.5966C107.752 52.2068 109.053 50.9906 109.66 50.3826C110.354 49.7745 110.354 49.7745 110.701 50.6432C113.564 57.5056 111.914 57.5222 114.692 50.4694Z" fill="#1D49C5" style="fill:#1D49C5;fill:color(display-p3 0.1137 0.2863 0.7725);fill-opacity:1;"/>
</svg>
